<svg width="160" height="41" fill="none" xmlns="http://www.w3.org/2000/svg"><path d="M58.86 15.46h-5.57V12.9h14.28v2.55h-5.6V30h-3.11V15.46Zm15.26 2.13c.46 0 .86.07 1.2.2l-.02 2.73a4.17 4.17 0 0 0-1.59-.31c-1.02 0-1.8.3-2.35.89a3.4 3.4 0 0 0-.8 2.35V30H67.6v-8.69c0-1.28-.06-2.42-.19-3.43h2.8l.25 2.14a3.6 3.6 0 0 1 1.44-1.8c.65-.42 1.4-.63 2.23-.63Zm14.23.29V30H85.4v-1.94c-.37.67-.9 1.2-1.59 1.58a4.9 4.9 0 0 1-2.35.55 5.07 5.07 0 0 1-4.7-2.95 7.59 7.59 0 0 1-.67-3.29c0-1.25.22-2.35.67-3.31a5.34 5.34 0 0 1 1.92-2.26 4.9 4.9 0 0 1 2.78-.81c.88 0 1.67.19 2.35.57.7.37 1.22.9 1.59 1.56v-1.82h2.95Zm-6.07 9.96c.99 0 1.76-.34 2.3-1.03.55-.69.82-1.66.82-2.9 0-1.29-.28-2.27-.82-2.96a2.8 2.8 0 0 0-2.33-1.03c-.99 0-1.77.36-2.33 1.08-.54.7-.81 1.69-.81 2.95 0 1.25.27 2.21.81 2.88.56.67 1.35 1.01 2.36 1.01Zm15.07-13.13c-1.3 0-1.94.71-1.94 2.14v1.03h2.71v2.26h-2.71V30h-3v-9.86h-2.3v-2.26h2.3V16.7c0-1.44.36-2.54 1.08-3.3.73-.8 1.78-1.18 3.14-1.18.75 0 1.39.1 1.9.28v2.38a4.94 4.94 0 0 0-1.18-.17Zm14.55 3.17V30h-2.95v-1.94c-.37.67-.9 1.2-1.58 1.58a4.9 4.9 0 0 1-2.35.55 5.07 5.07 0 0 1-4.7-2.95 7.58 7.58 0 0 1-.68-3.29c0-1.25.22-2.35.67-3.31a5.34 5.34 0 0 1 1.92-2.26 4.9 4.9 0 0 1 2.79-.81c.88 0 1.66.19 2.35.57.69.37 1.21.9 1.58 1.56v-1.82h2.95Zm-6.07 9.96c1 0 1.76-.34 2.3-1.03.55-.69.82-1.66.82-2.9 0-1.29-.27-2.27-.81-2.96a2.8 2.8 0 0 0-2.33-1.03c-1 0-1.77.36-2.33 1.08-.54.7-.82 1.69-.82 2.95 0 1.25.28 2.21.82 2.88.56.67 1.34 1.01 2.35 1.01Zm9.34-15.5h2.98V30h-2.98V12.34Zm17.97 5.54v11.74c0 1.88-.52 3.32-1.56 4.3-1.04.97-2.57 1.46-4.58 1.46-1.88 0-3.52-.4-4.95-1.18l.48-2.28a9.43 9.43 0 0 0 4.4 1.15c2.16 0 3.23-1.07 3.23-3.21v-2.4a4.3 4.3 0 0 1-1.6 1.6 5.42 5.42 0 0 1-5.2-.14 5.3 5.3 0 0 1-1.93-2.14 7.2 7.2 0 0 1-.67-3.16c0-1.19.22-2.24.67-3.15a5.1 5.1 0 0 1 4.75-2.9c.9 0 1.69.19 2.38.57.7.37 1.24.9 1.6 1.56v-1.82h2.98Zm-6.17 9.43c1 0 1.77-.33 2.33-.98.58-.66.86-1.56.86-2.71 0-1.16-.28-2.06-.84-2.72a2.93 2.93 0 0 0-2.35-.98c-.99 0-1.77.33-2.35.98a4.04 4.04 0 0 0-.84 2.72c0 1.15.28 2.05.84 2.7.58.66 1.36 1 2.35 1Zm21-9.43V30h-2.95v-1.94c-.37.67-.9 1.2-1.58 1.58a4.9 4.9 0 0 1-2.35.55 5.07 5.07 0 0 1-4.7-2.95 7.59 7.59 0 0 1-.68-3.29c0-1.25.22-2.35.67-3.31a5.34 5.34 0 0 1 1.92-2.26 4.9 4.9 0 0 1 2.79-.81c.88 0 1.66.19 2.35.57.69.37 1.21.9 1.58 1.56v-1.82h2.95Zm-6.07 9.96c1 0 1.76-.34 2.3-1.03.55-.69.82-1.66.82-2.9 0-1.29-.27-2.27-.81-2.96a2.8 2.8 0 0 0-2.33-1.03c-1 0-1.77.36-2.33 1.08-.54.7-.82 1.69-.82 2.95 0 1.25.28 2.21.82 2.88.56.67 1.34 1.01 2.35 1.01Zm15.87-10.25c.46 0 .86.07 1.2.2l-.03 2.73a4.17 4.17 0 0 0-1.58-.31c-1.02 0-1.8.3-2.35.89a3.4 3.4 0 0 0-.8 2.35V30h-2.97v-8.69c0-1.28-.06-2.42-.2-3.43h2.82l.24 2.14a3.6 3.6 0 0 1 1.44-1.8c.65-.42 1.4-.63 2.23-.63Z" fill="#233348"/><circle cx="20.5" cy="20.5" r="20.5" fill="#458FF6"/><path d="M19.34 15.24h-6.03V12.5h15.47v2.75h-6.06V31h-3.38V15.24Z" fill="#fff"/></svg>